PathFileType	4	(X/Y/Z)	Walk1.trc
DataRate	CameraRate	NumFrames	NumMarkers	Units	OrigDataRate	OrigDataStartFrame	OrigNumFrames
200.000000	200.000000	4	61	mm	200.000000	542	638
Frame#	Times		RCAR		LToe		LLFC		LASI		LFA1		RACR1		LUA1		RWRR		LCAR		LElbow		RLFC		LWRR		RTB2		RToe		RFA1		LACR1		RMT1		RTH3		RTH2		RTB3		LTH3		RFHD		RMT5		LTH4		RTB1		STRN		LFHD		LTB1		RTB4		LTB4		LWRU		RCAL		RWRU		LPSI		LTH2		C7		LMT1		RPSI		RMMAL		RLMAL		RASI		RMFC		LTB3		CLAV		LTB2		RElbow		LBHD		RBHD		LMFC		RUA1		RBack		RElbowM		LMMAL		RTH4		LElbowM		LMT5		LCAL		T10		LTH1		LLMAL		RTH1
			X1	Y1	Z1	X2	Y2	Z2	X3	Y3	Z3	X4	Y4	Z4	X5	Y5	Z5	X6	Y6	Z6	X7	Y7	Z7	X8	Y8	Z8	X9	Y9	Z9	X10	Y10	Z10	X11	Y11	Z11	X12	Y12	Z12	X13	Y13	Z13	X14	Y14	Z14	X15	Y15	Z15	X16	Y16	Z16	X17	Y17	Z17	X18	Y18	Z18	X19	Y19	Z19	X20	Y20	Z20	X21	Y21	Z21	X22	Y22	Z22	X23	Y23	Z23	X24	Y24	Z24	X25	Y25	Z25	X26	Y26	Z26	X27	Y27	Z27	X28	Y28	Z28	X29	Y29	Z29	X30	Y30	Z30	X31	Y31	Z31	X32	Y32	Z32	X33	Y33	Z33	X34	Y34	Z34	X35	Y35	Z35	X36	Y36	Z36	X37	Y37	Z37	X38	Y38	Z38	X39	Y39	Z39	X40	Y40	Z40	X41	Y41	Z41	X42	Y42	Z42	X43	Y43	Z43	X44	Y44	Z44	X45	Y45	Z45	X46	Y46	Z46	X47	Y47	Z47	X48	Y48	Z48	X49	Y49	Z49	X50	Y50	Z50	X51	Y51	Z51	X52	Y52	Z52	X53	Y53	Z53	X54	Y54	Z54	X55	Y55	Z55	X56	Y56	Z56	X57	Y57	Z57	X58	Y58	Z58	X59	Y59	Z59	X60	Y60	Z60	X61	Y61	Z61

542	2.71	959.04	871.55	428.31	1201.9	39.007	22.514	942.35	504.67	-88.934	905.99	1028	-102.01	838.82	1031.8	-266.9	838.29	1500.5	234.73	798.56	1333.3	-211.13	959.75	912.84	365.98	876.47	866.95	-285.33	759.36	1163.5	-249.2	712.96	502.58	250.5	887.45	904.43	-229.98	588.77	301.36	216.44	523.95	33.1	129.1	895.94	1046	389.91	811.31	1520.7	-136.38	495.85	69.491	117.77	729.87	629.68	252.95	793.36	712.4	260.4	530.47	248.89	145.29	925.67	649.58	-120	964.21	1701.9	116.2	438.84	64.797	198.32	900.4	730.18	-142.21	661.66	366.09	161.52	962.84	1297.5	43.478	963.77	1707.5	10.845	998.4	370.21	22.572	616.59	303.57	164.44	1001.8	285.54	28.942	805.12	903.43	-276.73	342.15	220.63	130.65	894.29	901.68	424.99	675.23	1065	-12.296	954.42	751.6	-131.12	719.37	1547.6	62.737	1145.8	47.666	37.948	670.69	1058.7	97.753	451.05	198.2	90.999	400.56	198.22	178.23	888.8	1051.6	209.34	724.67	488.01	103.8	1009.1	200.47	34.436	890.42	1468	34.687	1028.4	282.64	-28.739	799.41	1166.7	371.17	797.52	1689.2	-8.8552	794.43	1684.6	132.68	944.39	509.91	53.781	832.27	1324.2	315.66	674.04	1426.7	185.76	774.69	1132.8	284.42	1003.1	97.773	75.907	732.75	713.12	258.5	736.4	1138.1	-161.05	1101.8	28.924	-51.857	921.32	44.742	19.064	687.82	1190.6	45.914	874.27	811.45	-159.85	985.32	68.806	-22.783	737.2	801.06	264.67
543	2.715	960.89	871.13	428.16	1202	38.365	22.539	944.36	504.78	-89.334	910.9	1028.8	-102.82	844.92	1033.1	-267.59	844	1501.4	234.06	804.29	1334.5	-211.8	962.23	912.59	365.9	883.06	868.34	-285.83	765.12	1164.7	-250.04	724.17	502.57	251.3	893.85	905.92	-230.49	597.95	303.3	217.23	527.53	33.805	130.54	899.42	1046.5	389.61	816.95	1521.7	-136.86	500.75	71.91	119.05	739.38	629.29	253.31	801.81	712.85	260.41	538.71	251.75	146.03	928.2	649.63	-120.34	969.85	1702.7	115.56	443.5	68.358	199.03	903.57	730.4	-142.6	671.66	367.3	162.21	968.14	1298.3	42.919	969.4	1708.3	10.189	1000	370.19	22.232	626.66	305.38	165.5	1003	285.51	28.696	811.6	904.66	-277.27	350.22	226.79	131.64	896.5	902.13	424.78	680.34	1066	-12.905	957.9	751.31	-131.98	724.89	1548.6	62.195	1145.9	47.631	38.005	675.7	1059.4	97.092	458.59	202.18	91.968	408.12	203.09	179.28	894.58	1054.4	208.71	736.15	487.58	104.47	1009.9	200.4	34.285	895.87	1468.9	34.149	1029.5	282.42	-29.014	803.83	1167.8	370.42	803.1	1690.1	-9.4352	800.06	1685.6	132.09	946.71	510.27	53.374	837.5	1325.2	314.96	679.66	1427.9	185.45	779.11	1134.2	283.64	1003.3	97.717	75.911	741.2	712.8	258.59	742.05	1139.2	-161.92	1101.8	28.939	-51.927	921.32	44.762	19.029	692.98	1191.6	45.277	878.17	811.9	-160.38	985.41	68.761	-22.816	744.6	800.82	264.32
544	2.72	962.76	870.73	428.01	1202.2	37.756	22.548	946.28	504.88	-89.728	915.79	1029.6	-103.55	851.03	1034.4	-268.28	849.63	1502.4	233.44	810.01	1335.6	-212.46	964.73	912.38	365.83	889.69	869.74	-286.32	770.87	1165.8	-250.9	735.46	502.63	252.05	900.28	907.42	-231.01	607.35	305.25	217.94	531.67	34.728	132.1	902.9	1046.9	389.32	822.58	1522.8	-137.32	506.17	74.437	120.4	748.92	628.97	253.65	810.26	713.36	260.43	547.19	254.62	146.7	930.68	649.66	-120.65	975.46	1703.5	114.95	448.73	72.054	199.9	906.64	730.58	-142.96	681.85	368.48	162.89	973.4	1299.1	42.399	975.01	1709	9.5605	1001.6	370.17	21.889	636.85	307.2	166.44	1004.1	285.48	28.445	818.1	905.88	-277.83	358.56	232.72	132.61	898.74	902.61	424.6	685.4	1067	-13.538	961.27	750.99	-132.83	730.37	1549.6	61.659	1146.1	47.598	38.046	680.66	1060.1	96.4	466.41	206.1	92.894	416	207.86	180.3	900.25	1057	208.22	747.63	487.28	105.09	1010.6	200.33	34.13	901.28	1469.8	33.646	1030.5	282.2	-29.296	808.22	1168.9	369.72	808.65	1691	-9.9902	805.66	1686.6	131.53	948.95	510.59	52.97	842.66	1326.2	314.31	685.2	1429.1	185.1	783.43	1135.5	282.9	1003.5	97.677	75.92	749.66	712.55	258.69	747.66	1140.3	-162.84	1101.8	28.949	-51.986	921.32	44.776	18.997	698.1	1192.7	44.638	881.92	812.29	-160.89	985.47	68.729	-22.851	751.99	800.64	264
545	2.725	964.67	870.36	427.85	1202.3	37.182	22.542	948.14	504.97	-90.117	920.63	1030.4	-104.21	857.14	1035.7	-268.98	855.16	1503.3	232.86	815.7	1336.7	-213.12	967.24	912.2	365.76	896.37	871.14	-286.8	776.61	1166.9	-251.8	746.79	502.76	252.77	906.74	908.95	-231.52	616.95	307.21	218.59	536.4	35.878	133.76	906.38	1047.3	389.04	828.2	1523.8	-137.77	512.12	77.051	121.8	758.47	628.73	253.98	818.71	713.94	260.44	555.9	257.48	147.3	933.14	649.68	-120.95	981.03	1704.2	114.36	454.55	75.85	200.91	909.64	730.74	-143.29	692.2	369.63	163.56	978.62	1299.9	41.918	980.6	1709.8	8.961	1003.1	370.14	21.545	647.12	309.01	167.28	1005.2	285.44	28.191	824.63	907.07	-278.4	367.15	238.36	133.54	901.03	903.1	424.44	690.42	1068	-14.185	964.55	750.69	-133.64	735.81	1550.6	61.128	1146.2	47.566	38.071	685.57	1060.8	95.684	474.51	209.94	93.774	424.19	212.51	181.28	905.82	1059.3	207.86	759.07	487.14	105.65	1011.2	200.25	33.971	906.65	1470.6	33.176	1031.4	281.98	-29.579	812.59	1169.9	369.07	814.17	1691.9	-10.521	811.22	1687.5	131	951.13	510.9	52.569	847.73	1327.2	313.7	690.65	1430.2	184.71	787.68	1136.8	282.22	1003.6	97.654	75.933	758.13	712.36	258.79	753.22	1141.4	-163.8	1101.8	28.95	-52.036	921.31	44.785	18.968	703.17	1193.7	44.001	885.56	812.63	-161.37	985.52	68.699	-22.887	759.38	800.5	263.7
